<?xml version="1.0" standalone="no"?>
<!DOCTYPE svg PUBLIC "-//W3C//DTD SVG 20010904//EN"
 "http://www.w3.org/TR/2001/REC-SVG-20010904/DTD/svg10.dtd">
<svg version="1.0" xmlns="http://www.w3.org/2000/svg"
 width="100.000000pt" height="100.000000pt" viewBox="0 0 100.000000 100.000000"
 preserveAspectRatio="xMidYMid meet">

<g transform="translate(0.000000,100.000000) scale(0.100000,-0.100000)"
fill="#000000" stroke="none">
<path d="M157 742 c-15 -16 -17 -47 -17 -224 0 -186 2 -206 18 -221 17 -15 55
-17 344 -17 302 0 326 1 341 18 15 16 17 47 17 224 0 186 -2 206 -18 221 -17
15 -55 17 -344 17 -302 0 -326 -1 -341 -18z m678 -222 l0 -215 -335 0 -335 0
-3 205 c-1 112 0 210 3 217 3 11 73 13 337 11 l333 -3 0 -215z"/>
<path d="M447 613 c-11 -10 -8 -151 2 -158 13 -7 161 66 161 80 0 6 -34 27
-75 48 -84 41 -79 40 -88 30z"/>
<path d="M330 210 c0 -6 63 -10 170 -10 107 0 170 4 170 10 0 6 -63 10 -170
10 -107 0 -170 -4 -170 -10z"/>
</g>
</svg>
