<?xml version="1.0" standalone="no"?>
<!DOCTYPE svg PUBLIC "-//W3C//DTD SVG 20010904//EN"
 "http://www.w3.org/TR/2001/REC-SVG-20010904/DTD/svg10.dtd">
<svg version="1.0" xmlns="http://www.w3.org/2000/svg"
 width="100.000000pt" height="100.000000pt" viewBox="0 0 100.000000 100.000000"
 preserveAspectRatio="xMidYMid meet">

<g transform="translate(0.000000,100.000000) scale(0.100000,-0.100000)"
fill="#000000" stroke="none">
<path d="M491 894 c-42 -16 -118 -80 -139 -119 -8 -16 -13 -17 -26 -6 -25 21
-101 16 -136 -9 -30 -21 -60 -67 -60 -92 0 -7 -17 -23 -38 -36 -108 -66 -121
-218 -27 -301 48 -42 94 -53 210 -49 81 2 100 6 100 18 0 12 -22 16 -115 20
-132 6 -165 19 -200 83 -17 30 -21 49 -17 84 6 56 31 91 85 121 31 17 42 30
42 48 0 13 13 38 28 55 32 36 85 42 128 15 30 -20 37 -17 66 35 12 22 42 53
66 69 143 95 326 3 342 -170 5 -50 7 -55 35 -63 79 -24 115 -61 122 -128 3
-32 -1 -52 -16 -76 -36 -58 -62 -67 -195 -73 -99 -4 -121 -8 -121 -20 0 -12
21 -15 115 -18 103 -2 120 0 160 20 73 37 111 113 96 194 -9 47 -68 111 -117
126 -36 10 -39 14 -39 47 -1 77 -66 173 -145 213 -52 27 -147 33 -204 12z"/>
<path d="M435 500 c-46 -47 -57 -62 -47 -72 9 -9 21 -4 52 27 l40 39 2 -185
c3 -156 5 -184 18 -184 13 0 15 28 18 184 l2 185 40 -39 c31 -31 43 -36 52
-27 10 10 -1 25 -47 72 -33 33 -62 60 -65 60 -3 0 -32 -27 -65 -60z"/>
</g>
</svg>
